inDegrees=no
num_controls=7
num_derivatives=13
num_iterations=129
num_multipliers=7
num_parameters=0
num_slacks=7
num_states=26
objective=0.496900
objective_accelerations=0.043212
objective_balance=0.003636
objective_effort=0.039701
objective_height=0.404834
objective_ligament=0.005518
solver_duration=1463.110679
status=Solve_Succeeded
success=true
DataType=double
version=3
OpenSimVersion=4.5
endheader
time	/jointset/ground_pelvis/pelvis_tilt/value	/jointset/ground_pelvis/pelvis_tx/value	/jointset/ground_pelvis/pelvis_ty/value	/jointset/hip_r/hip_flexion_r/value	/jointset/hip_r/hip_adduction_r/value	/jointset/hip_r/hip_rotation_r/value	/jointset/back/lumbar_extension/value	/jointset/patellofemoral_r/patellar_flexion_r/value	/jointset/knee_r/knee_flexion_r/value	/jointset/knee_r/knee_adduction_r/value	/jointset/knee_r/knee_rotation_r/value	/jointset/ankle_r/ankle_angle_r/value	/jointset/subtalar_r/subtalar_angle_r/value	/jointset/ground_pelvis/pelvis_tilt/speed	/jointset/ground_pelvis/pelvis_tx/speed	/jointset/ground_pelvis/pelvis_ty/speed	/jointset/hip_r/hip_flexion_r/speed	/jointset/hip_r/hip_adduction_r/speed	/jointset/hip_r/hip_rotation_r/speed	/jointset/back/lumbar_extension/speed	/jointset/patellofemoral_r/patellar_flexion_r/speed	/jointset/knee_r/knee_flexion_r/speed	/jointset/knee_r/knee_adduction_r/speed	/jointset/knee_r/knee_rotation_r/speed	/jointset/ankle_r/ankle_angle_r/speed	/jointset/subtalar_r/subtalar_angle_r/speed	/forceset/tau_hip_flexion_r	/forceset/tau_hip_adduction_r	/forceset/tau_hip_rotation_r	/forceset/tau_knee_flexion_r	/forceset/tau_ankle_angle_r	/forceset/tau_subtalar_angle_r	/forceset/tau_lumbar_extension	lambda_cid13_p0	lambda_cid14_p0	lambda_cid14_p1	lambda_cid14_p2	lambda_cid14_p3	lambda_cid14_p4	lambda_cid14_p5	/jointset/ground_pelvis/pelvis_tilt/accel	/jointset/ground_pelvis/pelvis_tx/accel	/jointset/ground_pelvis/pelvis_ty/accel	/jointset/hip_r/hip_flexion_r/accel	/jointset/hip_r/hip_adduction_r/accel	/jointset/hip_r/hip_rotation_r/accel	/jointset/back/lumbar_extension/accel	/jointset/patellofemoral_r/patellar_flexion_r/accel	/jointset/knee_r/knee_flexion_r/accel	/jointset/knee_r/knee_adduction_r/accel	/jointset/knee_r/knee_rotation_r/accel	/jointset/ankle_r/ankle_angle_r/accel	/jointset/subtalar_r/subtalar_angle_r/accel	gamma_cid13_p0	gamma_cid14_p0	gamma_cid14_p1	gamma_cid14_p2	gamma_cid14_p3	gamma_cid14_p4	gamma_cid14_p5
0	-0.006515322199990868	0.09626027375623104	0.9427240679091846	0.1762555222360518	-0.2321527704523571	-0.2616399589563954	-0.038598046466844	0.07317863873451035	0.07317863873451017	0.1745328584810155	0.1745322565914674	0.03247278518263602	-0.003452072267510613	0	0	0	0	0	0	0	0	0	0	0	0	0	0.2310217827234	-0.1660487930322568	-0.0462190500664263	-0.4192886098307139	0.4226915009323613	-0.1482587142890444	-0.125459603000711	-39.07629172407257	85.94210323381053	-39.54148449472083	-4.429349927971309	-38.89057870874347	-678.5750700757933	58.17957271538792	-1.955236348273538	-1.011168851680544	-0.6031284235628533	8.975679309010562	0.2170114445952128	2.53112238139122	-4.977862571379092	9.573342064993302	9.573342064994558	-3.0181392998313	0.1885197478804962	3.430093846925748	1.000689422526736	1.045188227790985e-07	5.457470941002716e-08	-7.146512656924262e-07	2.220085435378723e-07	3.935099434855805e-08	2.188965777227436e-08	-3.650118648582554e-07
0.01	-0.006606298916229503	0.09621085998141225	0.9426951377122296	0.1766890055713544	-0.2321405542734225	-0.2615050773545914	-0.03884876139427414	0.07364367175469971	0.0736436717547021	0.174381898227152	0.1745294725074784	0.03264077035269244	-0.003401506293851924	-0.0181047468658461	-0.009798403475687929	-0.00577037316378586	0.08623961580011776	0.002396601008374201	0.02683192679846667	-0.0497314361381692	0.09259071957029011	0.09259071957029649	-0.02996825408361657	-0.0005380064820026182	0.03348374233399107	0.01003990464379079	0.2256450227908093	-0.1768957443795174	-0.04491377502236198	-0.4131003030257739	0.412145175942738	-0.1345129412892972	-0.1209341439435584	-39.09175516829437	83.07796266409784	-34.14682430436988	-5.205294046077714	-37.86143683601853	-679.0321884368	68.38024118737714	-1.724498984332421	-0.9515155020346837	-0.5616374507777957	8.379550243086186	0.2439177394409892	2.737623093159644	-4.909051732898195	9.039533329068989	9.039533329069103	-2.952687323098271	-0.1720744484266107	3.290538467342478	0.9945604919279747	1.41556516462715e-07	5.992545359635834e-08	-9.600774637465545e-07	2.139395367911566e-07	7.168844259985406e-08	-1.551877523386514e-07	-4.293889432845194e-07
0.02	-0.006875604126844175	0.09606599429053228	0.9426089746460385	0.1779711745701748	-0.2321057854223075	-0.2611061974319858	-0.03958444420265798	0.07502213125580165	0.07502213125580225	0.1739379516603491	0.1745218856382119	0.0331401977542303	-0.00325275737243077	-0.03566569887538606	-0.01909038321223403	-0.01144657384722831	0.1697371327031869	0.004510534436047176	0.05279966416034394	-0.09699357619083582	0.1826852961814655	0.1826852961814697	-0.05859726258608904	-0.0009605570514430626	0.0662884462962504	0.01963658955248995	0.2202682628582275	-0.1877426957267803	-0.0436084999783375	-0.4069119962208245	0.401598850953115	-0.1207671682895516	-0.1164086848863981	-39.13744435309592	80.29912848173899	-28.76053248861579	-5.953282405277618	-37.01764734865429	-678.1844641653047	78.3316413217663	-1.84647737701233	-0.9098841038521543	-0.5842939274941715	8.427259529600832	0.1604779284549571	2.358284494073322	-4.48400335427859	9.074113473170348	9.074113473169897	-2.750290183602456	0.2116109303929518	3.294286172579425	0.9120454755084065	1.785942101463314e-07	6.527619778268951e-08	-1.205503661800683e-06	2.058705300444409e-07	1.0402589085115e-07	-3.322651624495772e-07	-4.937660217107833e-07
0.03	-0.007318402261400133	0.09582960280171965	0.9424661990730463	0.1800768459951166	-0.2320511941683425	-0.2604544196354599	-0.04078154165761604	0.07728976304059709	0.07728976304060031	0.1732144525127333	0.1745128223852581	0.03396293071507824	-0.00301041146248225	-0.0528206045046772	-0.02821570800579705	-0.01711625327565572	0.2510941629902205	0.00639004314067002	0.07740014018929119	-0.1421722622104715	0.270411928980728	0.2704119289807257	-0.08591470542289768	-0.0008668323878655303	0.0979987347136109	0.02875844679500627	0.2128885400039252	-0.190103215246293	-0.04135636692200868	-0.3960290924597319	0.383039325200991	-0.1113208749134044	-0.1108925741445907	-39.2121381802681	74.71107278574493	-25.70894617647718	-6.356964611891114	-33.04065564415203	-677.613038513589	83.18966437805918	-1.638980530895199	-0.9180047495337678	-0.5595289976805403	7.944487416884428	0.1988954933772465	2.487628462273394	-4.4967533372943	8.557532545242706	8.557532545241987	-2.69446080310075	-0.09387640015746931	3.070523919320315	0.9009667306045833	2.042695337884509e-07	7.511152553928665e-08	-1.355310669600716e-06	2.49306895186877e-07	1.206980704669802e-07	-4.372889254549648e-07	-5.776783743188813e-07
0.04	-0.007930546127249831	0.09550112844848639	0.9422664818963369	0.1829870002506548	-0.2319783661969488	-0.2595612972176499	-0.04242281639506812	0.08042178002577521	0.0804217800257762	0.1722233810428655	0.1745042704520319	0.03509499130870117	-0.002679104803712309	-0.06953484513427539	-0.03750695609636014	-0.02283489459064293	0.3306336988224477	0.008157877921745339	0.1010685884169574	-0.1858290326896397	0.35556233625753	0.3555623362575226	-0.1121117270349325	-0.0008582931041924417	0.1281539728512094	0.03742873931677571	0.2055088171496154	-0.1924637347658075	-0.03910423386570819	-0.3851461886986426	0.3644797994488633	-0.1018745815372594	-0.1053764634027855	-39.31422785342507	69.20089087450609	-22.6594196433755	-6.74238967593082	-29.23587944523452	-675.8606270289918	87.82935277818785	-1.758344377073764	-0.9430687632521481	-0.5940863048061321	8.06376063863957	0.1381431437454411	2.171878933817116	-4.179620246185118	8.55886836867823	8.55886836867808	-2.526205938647669	0.1945738544120739	2.983276116627048	0.8217325313590267	2.297105817596116e-07	8.503931893650784e-08	-1.503146147704788e-06	2.938052267600174e-07	1.37047254853213e-07	-5.408270462519909e-07	-6.619935160853677e-07
0.05	-0.008707674845958475	0.09507973271174336	0.9420091385101654	0.1866832491567022	-0.2318886874714273	-0.2584375230081484	-0.04449179326216494	0.08439406000901113	0.08439406000901198	0.1709764055488631	0.174497025457106	0.03652244476776335	-0.002263227265648838	-0.08577212067815757	-0.04671490978484096	-0.02865283301522526	0.408191106730423	0.009728426005692315	0.1235617878183475	-0.2276364508201228	0.4385259251247418	0.4385259251247621	-0.1370308539389631	-0.0006265514316388886	0.1572085374582248	0.0456701706063018	0.1985482682518666	-0.1805967938117463	-0.03733775259504349	-0.3779099754468841	0.3556678157241011	-0.1069433093082512	-0.09986738024942728	-39.44185566607764	66.29100993368777	-25.42324700515493	-6.241244861713869	-27.62519023517876	-674.3676562421348	80.81567656171323	-1.538575428053729	-0.9010389099049718	-0.578614169104141	7.538000533092251	0.158930975706837	2.269454756121827	-4.131819110075537	8.109897708301574	8.109897708305835	-2.437091864546419	-0.06779661606066031	2.847364604680622	0.8136548708480189	2.264400408980646e-07	7.868885980412709e-08	-1.472449275325533e-06	2.834295699741025e-07	1.421864835711665e-07	-6.128152651309441e-07	-6.539509832498039e-07
0.06	-0.009643607577107187	0.09456798139046378	0.9416930224281841	0.1911423260750739	-0.2317848191980688	-0.2570925339420702	-0.04696894761328574	0.08918493459343094	0.08918493459343341	0.1694877736261728	0.174491043690959	0.03823660746728392	-0.00176727412607043	-0.1012956476223725	-0.05557807300366654	-0.03458943375262027	0.483199301287027	0.01099578748913863	0.1453115597326125	-0.2674645294944339	0.5192812564943105	0.5192812564943595	-0.1604430127736201	-0.0006056473485916164	0.1854958209429138	0.05344385961977256	0.1915877193541291	-0.1687298528576826	-0.03557127132437024	-0.3706737621951195	0.3468558319993422	-0.1120120370792397	-0.09435829709606303	-39.59285530508542	63.45152176732385	-28.19939108727874	-5.709988221510892	-26.16065301656645	-671.7841093039854	73.57587857337833	-1.615594657140323	-0.8741106693210816	-0.6178187673686706	7.553917968365309	0.07750582364529859	2.023193436392088	-3.783752354950717	8.117216869149615	8.11721686914967	-2.22481232477292	0.1524063365108254	2.829819892161796	0.7281840761479583	2.219605910330351e-07	7.165300056523677e-08	-1.43423525134698e-06	2.707434294678064e-07	1.468537141557186e-07	-6.834750670870309e-07	-6.420197062204695e-07
